<svg width="32" height="32" viewBox="0 0 32 32" fill="none" xmlns="http://www.w3.org/2000/svg">
<style>
@media (prefers-color-scheme: dark) {
    .dark {
        fill: white;
    }
}
</style>
<path d="M26.159 8.332C26.159 10.202 25.675 11.918 24.707 13.48C23.739 15.042 22.331 16.318 20.483 17.308C18.635 18.298 16.435 18.881 13.883 19.057L12.464 27.01C11.914 30.068 10.418 31.597 7.976 31.597C6.634 31.597 5.391 31.201 4.247 30.409C3.125 29.617 2.223 28.407 1.541 26.779C0.859 25.151 0.518 23.149 0.518 20.773C0.518 16.307 1.233 12.523 2.663 9.421C4.115 6.297 6.051 3.965 8.471 2.425C10.913 0.862999 13.597 0.0819995 16.523 0.0819995C18.591 0.0819995 20.34 0.444999 21.77 1.171C23.222 1.897 24.311 2.887 25.037 4.141C25.785 5.373 26.159 6.77 26.159 8.332ZM14.477 15.658C18.987 15.086 21.242 12.743 21.242 8.629C21.242 7.177 20.758 6 19.79 5.098C18.844 4.174 17.37 3.712 15.368 3.712C13.102 3.712 11.122 4.427 9.428 5.857C7.756 7.287 6.458 9.278 5.534 11.83C4.632 14.36 4.181 17.253 4.181 20.509C4.181 21.873 4.313 23.083 4.577 24.139C4.863 25.195 5.215 26.02 5.633 26.614C6.073 27.186 6.491 27.472 6.887 27.472C7.437 27.472 7.855 26.713 8.141 25.195L9.23 18.958C8.372 18.826 7.998 18.771 8.108 18.793C7.448 18.683 7.019 18.485 6.821 18.199C6.623 17.891 6.524 17.506 6.524 17.044C6.524 16.56 6.656 16.175 6.92 15.889C7.206 15.603 7.591 15.46 8.075 15.46C8.295 15.46 8.46 15.471 8.57 15.493C9.098 15.581 9.505 15.636 9.791 15.658C10.077 13.942 10.484 11.643 11.012 8.761C11.144 8.013 11.441 7.485 11.903 7.177C12.387 6.847 12.948 6.682 13.586 6.682C14.312 6.682 14.829 6.825 15.137 7.111C15.467 7.375 15.632 7.804 15.632 8.398C15.632 8.75 15.61 9.036 15.566 9.256L14.477 15.658Z" fill="black"/>
<path class="dark" d="M26.159 8.332C26.159 10.202 25.675 11.918 24.707 13.48C23.739 15.042 22.331 16.318 20.483 17.308C18.635 18.298 16.435 18.881 13.883 19.057L12.464 27.01C11.914 30.068 10.418 31.597 7.976 31.597C6.634 31.597 5.391 31.201 4.247 30.409C3.125 29.617 2.223 28.407 1.541 26.779C0.859 25.151 0.518 23.149 0.518 20.773C0.518 16.307 1.233 12.523 2.663 9.421C4.115 6.297 6.051 3.965 8.471 2.425C10.913 0.862999 13.597 0.0819995 16.523 0.0819995C18.591 0.0819995 20.34 0.444999 21.77 1.171C23.222 1.897 24.311 2.887 25.037 4.141C25.785 5.373 26.159 6.77 26.159 8.332ZM14.477 15.658C18.987 15.086 21.242 12.743 21.242 8.629C21.242 7.177 20.758 6 19.79 5.098C18.844 4.174 17.37 3.712 15.368 3.712C13.102 3.712 11.122 4.427 9.428 5.857C7.756 7.287 6.458 9.278 5.534 11.83C4.632 14.36 4.181 17.253 4.181 20.509C4.181 21.873 4.313 23.083 4.577 24.139C4.863 25.195 5.215 26.02 5.633 26.614C6.073 27.186 6.491 27.472 6.887 27.472C7.437 27.472 7.855 26.713 8.141 25.195L9.23 18.958C8.372 18.826 7.998 18.771 8.108 18.793C7.448 18.683 7.019 18.485 6.821 18.199C6.623 17.891 6.524 17.506 6.524 17.044C6.524 16.56 6.656 16.175 6.92 15.889C7.206 15.603 7.591 15.46 8.075 15.46C8.295 15.46 8.46 15.471 8.57 15.493C9.098 15.581 9.505 15.636 9.791 15.658C10.077 13.942 10.484 11.643 11.012 8.761C11.144 8.013 11.441 7.485 11.903 7.177C12.387 6.847 12.948 6.682 13.586 6.682C14.312 6.682 14.829 6.825 15.137 7.111C15.467 7.375 15.632 7.804 15.632 8.398C15.632 8.75 15.61 9.036 15.566 9.256L14.477 15.658Z"/>

</svg>
